<?xml version="1.0"?>
<svg version="1.1" xmlns="http://www.w3.org/2000/svg" xmlns:xlink="http://www.w3.org/1999/xlink" width="355.084" height="318.049">
    <desc iVinci="yes" version="4.6" gridStep="20" showGrid="yes" snapToGrid="no" codePlatform="0"/>
    <g id="Layer1" name="Layer 1" opacity="1">
        <g id="Shape1">
            <desc shapeID="1" type="0" basicInfo-basicType="0" basicInfo-roundedRectRadius="12" basicInfo-polygonSides="6" basicInfo-starPoints="5" bounding="rect(0,0,0,0)" text="" font-familyName="" font-pixelSize="20" font-bold="0" font-underline="0" font-alignment="1" strokeStyle="0" markerStart="0" markerEnd="0" shadowEnabled="0" shadowOffsetX="0" shadowOffsetY="2" shadowBlur="4" shadowOpacity="160" blurEnabled="0" blurRadius="4" transform="matrix(0.90659,0,0,0.90659,21.9776,-0.291321)" pers-center="0,0" pers-size="0,0" pers-start="0,0" pers-end="0,0" locked="0" mesh="" flag=""/>
            <path id="shapePath1" d="M21.9776,-0.291321 Z" style="stroke:none;fill-rule:evenodd;fill:#000000;fill-opacity:0.501961;"/>
        </g>
        <g id="Shape2">
            <desc shapeID="2" type="0" basicInfo-basicType="0" basicInfo-roundedRectRadius="12" basicInfo-polygonSides="6" basicInfo-starPoints="5" bounding="rect(0,0,0,0)" text="" font-familyName="" font-pixelSize="20" font-bold="0" font-underline="0" font-alignment="1" strokeStyle="0" markerStart="0" markerEnd="0" shadowEnabled="0" shadowOffsetX="0" shadowOffsetY="2" shadowBlur="4" shadowOpacity="160" blurEnabled="0" blurRadius="4" transform="matrix(0.90659,0,0,0.90659,21.9776,-0.291321)" pers-center="0,0" pers-size="0,0" pers-start="0,0" pers-end="0,0" locked="0" mesh="" flag=""/>
            <path id="shapePath2" d="M21.9776,-0.291321 Z" style="stroke:#000000;stroke-opacity:1;stroke-width:2;stroke-linejoin:miter;stroke-miterlimit:2;stroke-linecap:butt;fill-rule:evenodd;fill:#000000;fill-opacity:0;"/>
        </g>
        <g id="Shape3">
            <desc shapeID="3" type="0" basicInfo-basicType="0" basicInfo-roundedRectRadius="12" basicInfo-polygonSides="6" basicInfo-starPoints="5" bounding="rect(0,0,0,0)" text="" font-familyName="" font-pixelSize="20" font-bold="0" font-underline="0" font-alignment="1" strokeStyle="0" markerStart="0" markerEnd="0" shadowEnabled="0" shadowOffsetX="0" shadowOffsetY="2" shadowBlur="4" shadowOpacity="160" blurEnabled="0" blurRadius="4" transform="matrix(0.90659,0,0,0.90659,21.9776,-0.291321)" pers-center="0,0" pers-size="0,0" pers-start="0,0" pers-end="0,0" locked="0" mesh="" flag=""/>
            <path id="shapePath3" d="M21.9776,-0.291321 Z" style="stroke:#000000;stroke-opacity:1;stroke-width:1;stroke-linejoin:miter;stroke-miterlimit:2;stroke-linecap:butt;fill-rule:evenodd;fill:#000000;fill-opacity:0;"/>
        </g>
        <g id="Shape4">
            <desc shapeID="4" type="0" basicInfo-basicType="0" basicInfo-roundedRectRadius="12" basicInfo-polygonSides="6" basicInfo-starPoints="5" bounding="rect(-159.296,-50.425,318.593,100.85)" text="" font-familyName="Helvetica" font-pixelSize="20" font-bold="0" font-underline="0" font-alignment="1" strokeStyle="0" markerStart="0" markerEnd="0" shadowEnabled="0" shadowOffsetX="0" shadowOffsetY="2" shadowBlur="4" shadowOpacity="160" blurEnabled="0" blurRadius="4" transform="matrix(1,0,0,1,183.016,250.2)" pers-center="0,0" pers-size="0,0" pers-start="0,0" pers-end="0,0" locked="0" mesh="" flag=""/>
            <path id="shapePath4" d="M37.8626,224.615 L37.917,224.579 L38.3793,224.298 L38.8417,224.017 L39.3131,223.754 L39.7845,223.5 L40.256,223.255 L40.7365,223.02 L41.2169,222.793 L41.6974,222.575 L42.187,222.367 L42.6766,222.167 L43.1661,221.977 L43.6647,221.796 L44.1634,221.633 L44.6711,221.469 L45.1787,221.324 L45.6864,221.179 L46.1941,221.052 L46.7109,220.934 L47.2276,220.817 L47.7534,220.717 L48.2793,220.626 L48.8051,220.545 L49.34,220.472 L49.8749,220.409 L50.4098,220.354 L50.9537,220.318 L51.4977,220.282 L52.0416,220.255 L52.5947,220.245 L53.1477,220.236 L53.5556,220.236 L53.9545,220.245 L54.3534,220.264 L54.5438,220.264 L54.5529,220.264 L54.8067,220.255 L55.0606,220.245 L55.3144,220.245 L55.5683,220.236 L55.8221,220.236 L56.3751,220.245 L56.9282,220.255 L57.4721,220.282 L58.0161,220.318 L58.5509,220.372 L59.0858,220.427 L59.6116,220.49 L60.1375,220.572 L60.6542,220.662 L61.171,220.762 L61.6877,220.871 L62.1954,220.989 L62.6941,221.125 L63.1927,221.27 L63.6913,221.415 L64.1809,221.578 L64.6704,221.75 L65.1509,221.941 L65.6314,222.131 L66.1028,222.34 L66.5743,222.557 L67.0457,222.775 L67.508,223.02 L67.9613,223.264 L68.4146,223.518 L68.8679,223.79 L69.3122,224.062 L69.7473,224.352 L70.1825,224.652 L70.6176,224.969 L71.0437,225.286 L71.4698,225.612 L71.8959,225.957 L72.3039,226.311 L72.7209,226.673 L73.1289,227.045 L73.5278,227.426 L73.9267,227.825 L74.3256,228.223 L74.7154,228.641 L75.0962,229.067 L75.477,229.493 L75.8396,229.928 L76.1932,230.372 L76.5377,230.816 L76.8731,231.27 L77.1995,231.732 L77.5168,232.194 L77.825,232.666 L78.1152,233.137 L78.4052,233.627 L78.6863,234.107 L78.777,234.279 L78.9039,234.479 L79.1033,234.823 L79.3028,235.168 L79.5022,235.512 L79.6926,235.857 L79.8739,236.201 L80.0552,236.555 L80.2366,236.909 L80.3998,237.253 L80.572,237.607 L80.7352,237.969 L80.8893,238.323 L81.0344,238.676 L81.1885,239.039 L81.3245,239.402 L81.4604,239.755 L81.5965,240.127 L81.7234,240.49 L81.8412,240.852 L81.9591,241.224 L82.0679,241.587 L82.1767,241.958 L82.2764,242.33 L82.3761,242.702 L82.4668,243.073 L82.5484,243.454 L82.63,243.826 L82.7115,244.207 L82.7841,244.587 L82.8476,244.968 L82.911,245.349 L82.9654,245.73 L83.0198,246.12 L83.0651,246.5 L83.1105,246.89 L83.1467,247.28 L83.183,247.67 L83.2102,248.06 L83.2283,248.449 L83.2464,248.848 L83.2555,249.247 L83.2646,249.637 L83.2646,250.036 L83.2646,250.444 L83.2555,250.843 L83.2464,251.242 L83.2283,251.632 L83.2102,252.031 L83.183,252.429 L83.1467,252.819 L83.1105,253.209 L83.0651,253.599 L83.0198,253.989 L82.9654,254.379 L82.911,254.768 L82.8476,255.149 L82.7841,255.539 L82.7115,255.92 L82.63,256.301 L82.5484,256.681 L82.4577,257.062 L82.367,257.443 L82.2673,257.815 L82.1676,258.195 L82.0588,258.567 L81.95,258.939 L81.8322,259.31 L81.7052,259.682 L81.5783,260.045 L81.4514,260.416 L81.3154,260.779 L81.1704,261.142 L81.0253,261.504 L80.8712,261.867 L80.7171,262.23 L80.5539,262.592 L80.3816,262.946 L80.2094,263.308 L80.0371,263.662 L79.8558,264.016 L79.6654,264.369 L79.475,264.723 L79.2756,265.067 L79.0761,265.421 L78.8676,265.765 L78.6591,266.101 L78.4506,266.445 L78.233,266.772 L78.0154,267.098 L77.7888,267.424 L77.5621,267.751 L77.3355,268.068 L77.0998,268.376 L76.8641,268.694 L76.6193,268.993 L76.3745,269.301 L76.1297,269.6 L75.8759,269.89 L75.622,270.18 L75.3591,270.471 L75.0962,270.752 L74.8333,271.033 L74.5613,271.305 L74.516,271.359 L74.4525,271.422 L74.0446,271.839 L73.6366,272.247 L73.2286,272.646 L72.8116,273.036 L72.3946,273.417 L71.9775,273.789 L71.5514,274.142 L71.1163,274.487 L70.6811,274.822 L70.2459,275.149 L69.8017,275.466 L69.3575,275.765 L68.9133,276.064 L68.46,276.345 L68.0067,276.617 L67.5443,276.88 L67.082,277.125 L66.6196,277.37 L66.1482,277.596 L65.6677,277.814 L65.1962,278.022 L64.7067,278.222 L64.2262,278.403 L63.7366,278.585 L63.2471,278.748 L62.7485,278.902 L62.2498,279.047 L61.7421,279.183 L61.2345,279.301 L60.7177,279.41 L60.21,279.518 L59.6842,279.609 L59.1674,279.681 L58.6416,279.754 L58.1067,279.817 L57.5718,279.863 L57.0369,279.899 L56.493,279.926 L55.949,279.944 L55.4051,279.944 L55.1603,279.944 L54.9155,279.944 L54.6707,279.935 L54.426,279.926 L54.3716,279.926 L54.0271,279.935 L53.6191,279.944 L53.2021,279.944 L52.5947,279.944 L51.9872,279.926 L51.3889,279.899 L50.7996,279.863 L50.2103,279.808 L49.621,279.754 L49.0408,279.681 L48.4606,279.6 L47.8895,279.509 L47.3183,279.4 L46.7562,279.292 L46.1941,279.165 L45.6411,279.029 L45.0881,278.884 L44.5441,278.73 L44.0092,278.557 L43.4653,278.376 L42.9395,278.186 L42.4046,277.986 L41.8878,277.778 L41.362,277.551 L40.8543,277.315 L40.3376,277.07 L39.8389,276.817 L39.3312,276.554 L38.8326,276.273 L38.3431,275.992 L37.8626,275.693 L37.8626,279.301 L23.7198,279.301 L23.7198,199.775 L37.8626,199.775 L37.8626,224.615 M52.1776,233.69 L51.5974,233.736 L51.0262,233.808 L50.4642,233.89 L49.9111,233.998 L49.3672,234.116 L48.8323,234.261 L48.3065,234.425 L47.7897,234.606 L47.282,234.805 L46.7925,235.032 L46.3029,235.268 L45.8224,235.522 L45.351,235.803 L44.8886,236.102 L44.4353,236.41 L44.0002,236.745 L43.565,237.099 L43.1389,237.471 L42.7219,237.87 L42.323,238.278 L41.9241,238.704 L41.5524,239.139 L41.1988,239.583 L40.8634,240.036 L40.5461,240.508 L40.2469,240.988 L39.9659,241.478 L39.7029,241.976 L39.4491,242.484 L39.2225,243.01 L39.0139,243.536 L38.8235,244.08 L38.6513,244.633 L38.4972,245.195 L38.3612,245.775 L38.2433,246.355 L38.1436,246.954 L38.062,247.561 L37.9986,248.177 L37.9532,248.803 L37.926,249.447 L37.917,250.09 L37.926,250.761 L37.9532,251.414 L37.9986,252.058 L38.062,252.692 L38.1436,253.318 L38.2433,253.925 L38.3521,254.524 L38.4881,255.113 L38.6422,255.684 L38.8145,256.246 L39.0049,256.799 L39.2134,257.343 L39.431,257.869 L39.6758,258.386 L39.9387,258.893 L40.2197,259.383 L40.5098,259.863 L40.8271,260.335 L41.1626,260.797 L41.5161,261.241 L41.8788,261.677 L42.2686,262.103 L42.6675,262.511 L43.0755,262.901 L43.5016,263.263 L43.9277,263.617 L44.3719,263.952 L44.8161,264.26 L45.2785,264.56 L45.7408,264.832 L46.2213,265.085 L46.7109,265.321 L47.2095,265.539 L47.7172,265.738 L48.234,265.919 L48.7598,266.083 L49.2947,266.228 L49.8386,266.346 L50.3916,266.454 L50.9537,266.536 L51.5249,266.608 L52.1142,266.654 L52.7034,266.681 L53.3109,266.69 L53.9092,266.681 L54.5076,266.654 L55.0878,266.599 L55.668,266.536 L56.2301,266.445 L56.7831,266.346 L57.3361,266.219 L57.871,266.074 L58.2336,265.965 L58.3515,265.919 L58.8592,265.711 L59.3487,265.484 L59.8383,265.24 L60.3188,264.977 L60.7902,264.696 L61.2435,264.387 L61.6968,264.07 L62.141,263.725 L62.5762,263.363 L63.0023,262.973 L63.4193,262.574 L63.8273,262.157 L64.2262,261.713 L64.607,261.269 L64.9696,260.806 L65.305,260.335 L65.6314,259.854 L65.9306,259.365 L66.2207,258.866 L66.4927,258.349 L66.7374,257.824 L66.9641,257.289 L67.1817,256.745 L67.3721,256.192 L67.5534,255.621 L67.7075,255.049 L67.8435,254.46 L67.9613,253.862 L68.0701,253.245 L68.1517,252.629 L68.2152,251.994 L68.2605,251.36 L68.2877,250.698 L68.2968,250.036 L68.2877,249.383 L68.2605,248.731 L68.2152,248.096 L68.1517,247.47 L68.0701,246.854 L67.9704,246.246 L67.8526,245.657 L67.7166,245.077 L67.5624,244.506 L67.3902,243.944 L67.1998,243.391 L66.9913,242.856 L66.7646,242.33 L66.5199,241.813 L66.257,241.306 L65.9759,240.807 L65.6767,240.326 L65.3594,239.846 L65.024,239.384 L64.6704,238.939 L64.2987,238.495 L63.9089,238.069 L63.51,237.652 L63.093,237.253 L62.6759,236.881 L62.2408,236.519 L61.8056,236.183 L61.3523,235.866 L60.8899,235.567 L60.4185,235.286 L59.9471,235.023 L59.4575,234.778 L59.1402,234.642 L59.0314,234.597 L58.5056,234.415 L57.9798,234.261 L57.4358,234.116 L56.8828,233.989 L56.3207,233.89 L55.7496,233.799 L55.1694,233.736 L54.571,233.69 L53.9727,233.663 L53.3652,233.654 L52.7669,233.663 L52.1776,233.69 M118.508,220.255 L119.16,220.282 L119.813,220.318 L120.457,220.372 L121.091,220.427 L121.726,220.499 L122.342,220.581 L122.959,220.672 L123.575,220.771 L124.183,220.889 L124.781,221.007 L125.37,221.143 L125.96,221.288 L126.54,221.442 L127.111,221.605 L127.673,221.787 L128.235,221.977 L128.797,222.177 L129.341,222.385 L129.885,222.603 L130.42,222.838 L130.946,223.074 L131.472,223.328 L131.989,223.591 L132.505,223.863 L133.004,224.153 L133.503,224.443 L134.001,224.751 L134.482,225.069 L134.962,225.395 L135.434,225.73 L135.905,226.084 L136.367,226.437 L136.821,226.809 L137.265,227.19 L137.709,227.589 L138.144,227.988 L138.579,228.405 L138.996,228.822 L139.414,229.257 L139.822,229.692 L140.211,230.145 L140.592,230.599 L140.973,231.052 L141.335,231.523 L141.68,231.995 L142.025,232.475 L142.36,232.965 L142.677,233.464 L142.985,233.962 L143.285,234.47 L143.575,234.987 L143.856,235.503 L144.119,236.038 L144.382,236.573 L144.626,237.117 L144.862,237.661 L145.089,238.223 L145.306,238.785 L145.506,239.356 L145.705,239.928 L145.887,240.517 L146.059,241.106 L146.222,241.704 L146.376,242.312 L146.512,242.919 L146.648,243.536 L146.766,244.161 L146.875,244.796 L146.974,245.431 L147.065,246.083 L147.147,246.736 L147.219,247.398 L147.274,248.06 L147.319,248.731 L147.355,249.41 L147.382,250.099 L147.401,250.798 L147.401,251.496 L147.355,254.215 L101.572,254.215 L101.627,254.515 L101.681,254.814 L101.745,255.104 L101.808,255.403 L101.872,255.693 L101.944,255.974 L102.026,256.255 L102.107,256.536 L102.189,256.817 L102.28,257.089 L102.37,257.361 L102.47,257.624 L102.57,257.887 L102.679,258.15 L102.787,258.413 L102.896,258.667 L103.014,258.912 L103.141,259.165 L103.268,259.41 L103.395,259.655 L103.531,259.891 L103.667,260.126 L103.812,260.362 L103.957,260.589 L104.111,260.815 L104.265,261.042 L104.428,261.26 L104.591,261.477 L104.755,261.695 L104.927,261.903 L105.108,262.112 L105.29,262.32 L105.471,262.52 L105.661,262.719 L105.852,262.919 L106.051,263.109 L106.25,263.299 L106.45,263.481 L106.668,263.671 L106.876,263.852 L107.094,264.025 L107.311,264.197 L107.538,264.36 L107.764,264.523 L107.991,264.686 L108.218,264.841 L108.453,264.986 L108.698,265.131 L108.934,265.276 L109.179,265.412 L109.424,265.539 L109.677,265.666 L109.922,265.793 L110.185,265.91 L110.439,266.028 L110.702,266.137 L110.965,266.237 L111.237,266.336 L111.5,266.436 L111.781,266.527 L112.053,266.608 L112.334,266.699 L112.615,266.772 L112.896,266.844 L113.186,266.917 L113.476,266.98 L113.775,267.044 L114.074,267.098 L114.374,267.152 L114.673,267.198 L114.981,267.234 L115.289,267.279 L115.597,267.307 L115.915,267.334 L116.232,267.361 L116.549,267.379 L116.876,267.397 L117.202,267.406 L117.538,267.415 L117.864,267.415 L118.263,267.415 L118.662,267.406 L119.052,267.388 L119.441,267.361 L119.822,267.334 L120.212,267.288 L120.593,267.243 L120.964,267.198 L121.345,267.134 L121.717,267.071 L122.089,266.998 L122.451,266.917 L122.814,266.826 L123.176,266.735 L123.539,266.636 L123.893,266.527 L124.246,266.409 L124.591,266.291 L124.944,266.155 L125.289,266.019 L125.624,265.883 L125.969,265.729 L126.304,265.575 L126.64,265.412 L126.966,265.24 L127.292,265.058 L127.619,264.877 L127.945,264.686 L128.262,264.487 L128.58,264.279 L128.888,264.061 L129.205,263.843 L129.514,263.617 L129.813,263.381 L130.121,263.145 L130.42,262.901 L130.71,262.638 L131.009,262.384 L131.3,262.112 L131.59,261.84 L143.602,267.47 L143.375,267.787 L143.14,268.095 L142.913,268.413 L142.677,268.712 L142.451,269.011 L142.206,269.31 L141.97,269.6 L141.725,269.89 L141.49,270.171 L141.236,270.452 L140.991,270.724 L140.746,270.996 L140.492,271.259 L140.239,271.522 L139.976,271.785 L139.722,272.039 L139.459,272.293 L139.196,272.538 L138.933,272.773 L138.661,273.018 L138.389,273.245 L138.117,273.48 L137.845,273.698 L137.564,273.925 L137.292,274.142 L137.011,274.351 L136.721,274.559 L136.44,274.768 L136.15,274.967 L135.86,275.167 L135.57,275.357 L135.27,275.538 L134.98,275.729 L134.681,275.901 L134.373,276.082 L134.074,276.255 L133.765,276.418 L133.457,276.581 L133.149,276.744 L132.841,276.898 L132.523,277.043 L132.206,277.188 L131.889,277.333 L131.562,277.478 L131.236,277.605 L130.91,277.741 L130.574,277.868 L130.239,277.995 L129.903,278.113 L129.559,278.231 L129.214,278.34 L128.87,278.449 L128.516,278.557 L128.163,278.657 L127.809,278.757 L127.456,278.847 L127.093,278.938 L126.73,279.02 L126.359,279.101 L125.987,279.183 L125.615,279.255 L125.234,279.328 L124.863,279.391 L124.473,279.455 L124.092,279.518 L123.702,279.573 L123.313,279.627 L122.923,279.672 L122.524,279.718 L122.125,279.754 L121.717,279.79 L121.318,279.827 L120.901,279.854 L120.493,279.881 L120.076,279.899 L119.659,279.917 L119.242,279.926 L118.816,279.935 L118.39,279.944 L117.964,279.944 L117.302,279.944 L116.64,279.926 L115.987,279.899 L115.344,279.863 L114.7,279.817 L114.065,279.754 L113.44,279.691 L112.814,279.609 L112.198,279.518 L111.59,279.419 L110.983,279.31 L110.394,279.183 L109.795,279.056 L109.215,278.911 L108.635,278.757 L108.064,278.594 L107.502,278.421 L106.939,278.24 L106.386,278.041 L105.843,277.841 L105.299,277.624 L104.764,277.397 L104.238,277.161 L103.712,276.907 L103.195,276.653 L102.688,276.382 L102.18,276.1 L101.681,275.81 L101.192,275.511 L100.711,275.203 L100.231,274.886 L99.7593,274.55 L99.2879,274.206 L98.8255,273.852 L98.3722,273.489 L97.928,273.118 L97.4837,272.728 L97.0486,272.338 L96.6225,271.93 L96.1964,271.513 L95.7794,271.087 L95.3805,270.661 L94.9816,270.226 L94.6008,269.782 L94.2291,269.337 L93.8665,268.893 L93.5129,268.431 L93.1684,267.968 L92.842,267.506 L92.5247,267.035 L92.2165,266.554 L91.9173,266.074 L91.6272,265.584 L91.3461,265.094 L91.0832,264.596 L90.8203,264.088 L90.5755,263.58 L90.3398,263.064 L90.1132,262.547 L89.8956,262.021 L89.6962,261.495 L89.4967,260.96 L89.3154,260.416 L89.1431,259.872 L88.9799,259.319 L88.8258,258.757 L88.6898,258.195 L88.5538,257.633 L88.436,257.062 L88.3272,256.482 L88.2275,255.893 L88.1368,255.312 L88.0552,254.714 L87.9918,254.116 L87.9283,253.508 L87.883,252.901 L87.8467,252.284 L87.8195,251.668 L87.8014,251.042 L87.8014,250.408 L87.8014,249.755 L87.8195,249.12 L87.8467,248.486 L87.883,247.851 L87.9283,247.226 L87.9918,246.609 L88.0552,245.993 L88.1368,245.385 L88.2275,244.778 L88.3272,244.179 L88.436,243.59 L88.5538,243.001 L88.6808,242.421 L88.8258,241.85 L88.9799,241.278 L89.1431,240.716 L89.3154,240.154 L89.4967,239.601 L89.6871,239.048 L89.8956,238.513 L90.1041,237.969 L90.3308,237.443 L90.5665,236.918 L90.8113,236.392 L91.0742,235.884 L91.3371,235.376 L91.6181,234.869 L91.9082,234.37 L92.2074,233.881 L92.5157,233.391 L92.8329,232.911 L93.1593,232.43 L93.5038,231.959 L93.8483,231.496 L94.211,231.043 L94.5827,230.581 L94.9725,230.136 L95.3623,229.692 L95.7612,229.257 L96.1783,228.822 L96.5953,228.405 L97.0305,227.988 L97.4566,227.589 L97.8917,227.19 L98.3359,226.809 L98.7892,226.437 L99.2425,226.084 L99.6958,225.73 L100.158,225.395 L100.63,225.069 L101.11,224.751 L101.591,224.443 L102.071,224.153 L102.561,223.863 L103.059,223.591 L103.558,223.328 L104.066,223.074 L104.573,222.838 L105.09,222.603 L105.616,222.385 L106.142,222.177 L106.677,221.977 L107.211,221.787 L107.755,221.605 L108.308,221.442 L108.861,221.288 L109.424,221.143 L109.986,221.007 L110.557,220.889 L111.137,220.771 L111.717,220.672 L112.297,220.581 L112.887,220.499 L113.485,220.427 L114.092,220.372 L114.7,220.318 L115.307,220.282 L115.924,220.255 L116.549,220.236 L117.184,220.236 L117.846,220.236 L118.508,220.255 M116.305,232.348 L115.543,232.421 L114.791,232.53 L114.056,232.657 L113.34,232.82 L112.624,233.019 L111.935,233.237 L111.246,233.491 L110.575,233.772 L109.922,234.089 L109.278,234.425 L108.644,234.796 L108.027,235.195 L107.42,235.63 L107.048,235.92 L106.677,236.247 L106.314,236.591 L105.942,236.972 L105.589,237.38 L105.235,237.815 L104.882,238.278 L104.528,238.767 L104.183,239.284 L103.848,239.828 L103.513,240.408 L103.177,241.006 L102.851,241.641 L102.524,242.303 L102.198,242.983 L133.049,242.983 L132.85,242.366 L132.623,241.75 L132.378,241.161 L132.106,240.58 L131.807,240.018 L131.481,239.474 L131.136,238.939 L130.765,238.432 L130.375,237.933 L129.949,237.443 L129.514,236.981 L129.042,236.528 L128.553,236.093 L128.036,235.676 L127.492,235.268 L126.93,234.887 L126.359,234.524 L125.778,234.198 L125.18,233.89 L124.582,233.609 L123.956,233.364 L123.331,233.137 L122.687,232.938 L122.034,232.765 L121.372,232.62 L120.692,232.503 L120.003,232.403 L119.305,232.339 L118.589,232.303 L117.864,232.285 L117.075,232.303 L116.305,232.348 M312.993,220.245 L313.392,220.255 L313.791,220.273 L314.19,220.3 L314.589,220.327 L314.979,220.354 L315.378,220.4 L315.768,220.436 L316.157,220.49 L316.547,220.536 L316.937,220.599 L317.318,220.663 L317.708,220.726 L318.089,220.799 L318.478,220.88 L318.859,220.962 L319.24,221.052 L319.621,221.143 L319.992,221.243 L320.373,221.342 L320.745,221.451 L321.126,221.56 L321.497,221.687 L321.869,221.805 L322.241,221.932 L322.612,222.068 L322.975,222.204 L323.347,222.349 L323.709,222.494 L324.081,222.648 L324.444,222.811 L324.806,222.974 L325.169,223.138 L325.522,223.31 L325.885,223.491 L326.239,223.672 L326.601,223.863 L326.955,224.053 L327.309,224.253 L327.662,224.452 L328.007,224.661 L328.351,224.869 L328.686,225.087 L329.031,225.304 L329.357,225.522 L329.684,225.748 L330.01,225.975 L330.336,226.211 L330.654,226.447 L330.962,226.682 L331.27,226.927 L331.579,227.172 L331.878,227.417 L332.177,227.67 L332.467,227.924 L332.757,228.187 L333.047,228.45 L333.328,228.722 L333.609,228.994 L333.881,229.266 L334.153,229.547 L334.416,229.828 L334.679,230.109 L334.933,230.399 L335.196,230.689 L335.441,230.989 L335.685,231.288 L335.93,231.587 L336.175,231.895 L336.411,232.203 L336.637,232.521 L336.864,232.838 L337.091,233.164 L337.308,233.482 L337.526,233.817 L337.734,234.144 L337.943,234.479 L338.151,234.823 L338.351,235.159 L338.541,235.512 L338.732,235.857 L338.922,236.201 L339.103,236.555 L339.276,236.9 L339.448,237.253 L339.611,237.607 L339.774,237.96 L339.928,238.323 L340.082,238.676 L340.227,239.039 L340.372,239.393 L340.508,239.755 L340.635,240.118 L340.762,240.49 L340.889,240.852 L340.998,241.215 L341.116,241.587 L341.225,241.958 L341.324,242.33 L341.415,242.702 L341.506,243.073 L341.596,243.454 L341.678,243.826 L341.76,244.207 L341.823,244.587 L341.896,244.968 L341.959,245.349 L342.013,245.73 L342.068,246.11 L342.113,246.5 L342.158,246.89 L342.195,247.28 L342.222,247.67 L342.249,248.06 L342.276,248.449 L342.294,248.848 L342.303,249.238 L342.313,249.637 L342.313,250.036 L342.313,250.435 L342.303,250.843 L342.294,251.242 L342.276,251.632 L342.249,252.031 L342.222,252.429 L342.195,252.819 L342.149,253.209 L342.113,253.599 L342.068,253.989 L342.013,254.379 L341.95,254.768 L341.896,255.149 L341.823,255.539 L341.75,255.92 L341.678,256.301 L341.596,256.681 L341.506,257.062 L341.415,257.434 L341.315,257.815 L341.216,258.186 L341.107,258.567 L340.989,258.939 L340.88,259.31 L340.753,259.673 L340.626,260.045 L340.49,260.417 L340.354,260.779 L340.218,261.142 L340.064,261.504 L339.919,261.867 L339.756,262.23 L339.593,262.592 L339.43,262.946 L339.257,263.308 L339.076,263.662 L338.895,264.016 L338.713,264.369 L338.523,264.723 L338.324,265.067 L338.124,265.421 L337.916,265.765 L337.707,266.101 L337.499,266.436 L337.281,266.772 L337.063,267.098 L336.837,267.424 L336.61,267.751 L336.383,268.068 L336.148,268.376 L335.903,268.685 L335.667,268.993 L335.422,269.301 L335.169,269.591 L334.924,269.89 L334.661,270.18 L334.407,270.471 L334.144,270.752 L333.872,271.033 L333.609,271.305 L333.328,271.577 L333.056,271.84 L332.775,272.111 L332.485,272.365 L332.195,272.619 L331.905,272.873 L331.615,273.127 L331.316,273.372 L331.007,273.607 L330.699,273.843 L330.391,274.079 L330.083,274.305 L329.765,274.532 L329.439,274.759 L329.113,274.976 L328.786,275.185 L328.46,275.402 L328.124,275.602 L327.78,275.81 L327.435,276.01 L327.091,276.2 L326.746,276.391 L326.393,276.572 L326.048,276.753 L325.695,276.925 L325.341,277.098 L324.988,277.261 L324.625,277.424 L324.262,277.578 L323.909,277.732 L323.537,277.877 L323.174,278.013 L322.812,278.149 L322.44,278.276 L322.068,278.403 L321.697,278.53 L321.325,278.639 L320.953,278.757 L320.573,278.857 L320.192,278.956 L319.811,279.056 L319.43,279.147 L319.049,279.237 L318.66,279.319 L318.27,279.391 L317.88,279.464 L317.49,279.527 L317.1,279.591 L316.701,279.645 L316.312,279.7 L315.913,279.745 L315.514,279.79 L315.106,279.827 L314.707,279.854 L314.299,279.881 L313.891,279.908 L313.483,279.926 L313.075,279.935 L312.658,279.944 L312.25,279.944 L311.643,279.944 L311.035,279.926 L310.437,279.899 L309.839,279.863 L309.249,279.808 L308.669,279.754 L308.08,279.682 L307.509,279.6 L306.937,279.509 L306.366,279.4 L305.804,279.292 L305.242,279.165 L304.689,279.029 L304.136,278.884 L303.592,278.721 L303.048,278.557 L302.513,278.376 L301.978,278.186 L301.453,277.986 L300.927,277.778 L300.41,277.551 L299.893,277.315 L299.386,277.071 L298.878,276.817 L298.379,276.554 L297.881,276.273 L297.391,275.992 L296.901,275.693 L296.421,275.384 L295.94,275.058 L295.46,274.732 L294.998,274.387 L294.526,274.033 L294.064,273.671 L293.611,273.299 L293.157,272.909 L292.713,272.51 L292.269,272.102 L291.834,271.685 L291.398,271.259 L290.972,270.824 L290.555,270.38 L290.147,269.936 L289.758,269.482 L289.368,269.029 L288.996,268.567 L288.633,268.104 L288.289,267.633 L287.944,267.161 L287.618,266.681 L287.301,266.201 L286.992,265.711 L286.693,265.212 L286.412,264.714 L286.131,264.215 L285.868,263.707 L285.614,263.2 L285.37,262.683 L285.143,262.157 L284.916,261.631 L284.708,261.105 L284.508,260.571 L284.318,260.027 L284.146,259.483 L283.974,258.939 L283.819,258.386 L283.674,257.824 L283.538,257.262 L283.411,256.69 L283.303,256.119 L283.203,255.548 L283.103,254.959 L283.031,254.379 L282.958,253.789 L282.895,253.191 L282.849,252.593 L282.813,251.985 L282.786,251.378 L282.768,250.761 L282.759,250.145 L282.768,249.483 L282.786,248.821 L282.813,248.168 L282.858,247.525 L282.913,246.881 L282.985,246.246 L283.058,245.621 L283.148,244.995 L283.257,244.379 L283.375,243.762 L283.502,243.155 L283.638,242.557 L283.792,241.958 L283.955,241.369 L284.137,240.789 L284.327,240.209 L284.527,239.628 L284.735,239.066 L284.962,238.495 L285.197,237.942 L285.451,237.389 L285.714,236.845 L285.986,236.301 L286.276,235.766 L286.575,235.24 L286.884,234.715 L287.21,234.198 L287.545,233.681 L287.89,233.173 L288.253,232.675 L288.624,232.176 L289.005,231.687 L289.404,231.197 L289.812,230.717 L290.229,230.245 L290.664,229.774 L291.108,229.311 L291.571,228.849 L292.042,228.405 L292.523,227.951 L292.949,227.571 L293.384,227.199 L293.819,226.836 L294.254,226.492 L294.698,226.147 L295.143,225.812 L295.596,225.486 L296.049,225.177 L296.503,224.869 L296.965,224.579 L297.418,224.289 L297.89,224.017 L298.352,223.754 L298.823,223.5 L299.304,223.255 L299.775,223.011 L300.256,222.784 L300.745,222.566 L301.226,222.367 L301.715,222.167 L302.214,221.977 L302.713,221.796 L303.211,221.633 L303.71,221.469 L304.218,221.324 L304.725,221.179 L305.242,221.052 L305.759,220.934 L306.276,220.817 L306.801,220.717 L307.327,220.626 L307.853,220.545 L308.379,220.472 L308.923,220.409 L309.458,220.354 L310.002,220.309 L310.546,220.282 L311.09,220.255 L311.643,220.236 L312.196,220.236 L312.595,220.236 L312.993,220.245 M311.217,233.69 L310.636,233.736 L310.065,233.808 L309.503,233.89 L308.95,233.998 L308.415,234.116 L307.88,234.261 L307.354,234.425 L306.838,234.606 L306.33,234.805 L305.831,235.023 L305.342,235.268 L304.861,235.522 L304.399,235.803 L303.937,236.102 L303.483,236.41 L303.039,236.745 L302.604,237.099 L302.187,237.471 L301.77,237.861 L301.362,238.278 L300.972,238.704 L300.6,239.139 L300.247,239.583 L299.911,240.036 L299.594,240.508 L299.286,240.988 L299.005,241.478 L298.742,241.976 L298.497,242.484 L298.27,243.001 L298.062,243.536 L297.872,244.08 L297.699,244.633 L297.545,245.195 L297.409,245.766 L297.291,246.355 L297.192,246.954 L297.101,247.561 L297.037,248.178 L296.992,248.803 L296.965,249.438 L296.956,250.09 L296.965,250.761 L296.992,251.414 L297.037,252.058 L297.101,252.692 L297.183,253.318 L297.282,253.925 L297.4,254.524 L297.536,255.113 L297.69,255.684 L297.862,256.246 L298.044,256.799 L298.252,257.343 L298.479,257.869 L298.724,258.386 L298.987,258.893 L299.259,259.383 L299.558,259.863 L299.875,260.335 L300.201,260.797 L300.555,261.241 L300.927,261.677 L301.308,262.103 L301.715,262.511 L302.123,262.891 L302.54,263.263 L302.976,263.617 L303.411,263.952 L303.864,264.26 L304.317,264.551 L304.789,264.832 L305.269,265.085 L305.75,265.321 L306.248,265.539 L306.756,265.738 L307.273,265.919 L307.799,266.083 L308.334,266.228 L308.878,266.346 L309.44,266.454 L310.002,266.536 L310.573,266.599 L311.153,266.654 L311.751,266.681 L312.35,266.69 L312.957,266.681 L313.546,266.654 L314.136,266.599 L314.707,266.536 L315.278,266.445 L315.831,266.346 L316.375,266.219 L316.919,266.074 L317.445,265.91 L317.962,265.729 L318.469,265.53 L318.977,265.303 L319.466,265.067 L319.947,264.804 L320.418,264.532 L320.881,264.233 L321.343,263.916 L321.787,263.58 L322.223,263.227 L322.649,262.855 L323.066,262.456 L323.474,262.048 L323.872,261.622 L324.244,261.178 L324.598,260.725 L324.942,260.271 L325.26,259.8 L325.568,259.31 L325.849,258.821 L326.112,258.313 L326.366,257.796 L326.592,257.271 L326.801,256.736 L327,256.183 L327.172,255.621 L327.327,255.049 L327.463,254.469 L327.58,253.88 L327.68,253.273 L327.771,252.656 L327.834,252.031 L327.88,251.396 L327.907,250.752 L327.916,250.09 L327.907,249.429 L327.88,248.785 L327.834,248.15 L327.771,247.525 L327.689,246.908 L327.59,246.31 L327.472,245.721 L327.336,245.14 L327.182,244.569 L327.009,244.016 L326.819,243.472 L326.619,242.937 L326.393,242.412 L326.148,241.904 L325.885,241.405 L325.604,240.916 L325.305,240.435 L324.997,239.973 L324.661,239.52 L324.308,239.075 L323.936,238.64 L323.555,238.223 L323.147,237.815 L322.739,237.425 L322.322,237.063 L321.887,236.709 L321.443,236.383 L320.99,236.065 L320.536,235.775 L320.065,235.503 L319.575,235.25 L319.086,235.014 L318.587,234.796 L318.07,234.597 L317.554,234.415 L317.019,234.252 L316.475,234.116 L315.931,233.989 L315.369,233.89 L314.789,233.799 L314.208,233.736 L313.619,233.69 L313.021,233.663 L312.404,233.654 L311.806,233.663 L311.217,233.69 M167.556,275.566 L167.611,275.603 L168.073,275.884 L168.535,276.165 L169.007,276.428 L169.478,276.682 L169.95,276.926 L170.43,277.162 L170.911,277.389 L171.391,277.606 L171.881,277.815 L172.37,278.014 L172.86,278.205 L173.358,278.386 L173.857,278.549 L174.365,278.712 L174.872,278.857 L175.38,279.002 L175.888,279.129 L176.405,279.247 L176.921,279.365 L177.447,279.465 L177.973,279.555 L178.499,279.637 L179.034,279.709 L179.568,279.773 L180.103,279.827 L180.647,279.864 L181.191,279.9 L181.735,279.927 L182.288,279.936 L182.841,279.945 L183.249,279.945 L183.648,279.936 L184.047,279.918 L184.237,279.918 L184.246,279.918 L184.5,279.927 L184.754,279.936 L185.008,279.936 L185.262,279.945 L185.516,279.945 L186.069,279.936 L186.622,279.927 L187.166,279.9 L187.71,279.864 L188.245,279.809 L188.779,279.755 L189.305,279.691 L189.831,279.61 L190.348,279.519 L190.865,279.419 L191.381,279.31 L191.889,279.193 L192.388,279.057 L192.886,278.912 L193.385,278.767 L193.874,278.603 L194.364,278.431 L194.844,278.241 L195.325,278.05 L195.796,277.842 L196.268,277.624 L196.739,277.407 L197.202,277.162 L197.655,276.917 L198.108,276.663 L198.561,276.391 L199.006,276.119 L199.441,275.829 L199.876,275.53 L200.311,275.213 L200.737,274.895 L201.163,274.569 L201.589,274.224 L201.997,273.871 L202.414,273.508 L202.822,273.137 L203.221,272.756 L203.62,272.357 L204.019,271.958 L204.409,271.541 L204.79,271.115 L205.17,270.689 L205.533,270.254 L205.887,269.809 L206.231,269.365 L206.567,268.912 L206.893,268.449 L207.21,267.987 L207.518,267.516 L207.809,267.044 L208.099,266.555 L208.38,266.074 L208.47,265.902 L208.597,265.702 L208.797,265.358 L208.996,265.013 L209.196,264.669 L209.386,264.324 L209.567,263.98 L209.749,263.626 L209.93,263.273 L210.093,262.928 L210.265,262.575 L210.429,262.212 L210.583,261.858 L210.728,261.505 L210.882,261.142 L211.018,260.78 L211.154,260.426 L211.29,260.054 L211.417,259.692 L211.535,259.329 L211.652,258.957 L211.761,258.595 L211.87,258.223 L211.97,257.851 L212.069,257.48 L212.16,257.108 L212.242,256.727 L212.323,256.355 L212.405,255.975 L212.477,255.594 L212.541,255.213 L212.604,254.832 L212.659,254.452 L212.713,254.062 L212.758,253.681 L212.804,253.291 L212.84,252.901 L212.876,252.512 L212.903,252.122 L212.922,251.732 L212.94,251.333 L212.949,250.934 L212.958,250.544 L212.958,250.145 L212.958,249.737 L212.949,249.338 L212.94,248.94 L212.922,248.55 L212.903,248.151 L212.876,247.752 L212.84,247.362 L212.804,246.972 L212.758,246.582 L212.713,246.193 L212.659,245.803 L212.604,245.413 L212.541,245.032 L212.477,244.642 L212.405,244.262 L212.323,243.881 L212.242,243.5 L212.151,243.119 L212.06,242.739 L211.961,242.367 L211.861,241.986 L211.752,241.614 L211.643,241.243 L211.525,240.871 L211.398,240.499 L211.271,240.137 L211.145,239.765 L211.009,239.402 L210.864,239.04 L210.718,238.677 L210.564,238.314 L210.41,237.952 L210.247,237.589 L210.075,237.236 L209.903,236.873 L209.73,236.519 L209.549,236.166 L209.359,235.812 L209.168,235.459 L208.969,235.114 L208.769,234.761 L208.561,234.416 L208.352,234.081 L208.144,233.736 L207.926,233.41 L207.709,233.083 L207.482,232.757 L207.255,232.431 L207.029,232.113 L206.793,231.805 L206.557,231.488 L206.312,231.189 L206.068,230.88 L205.823,230.581 L205.569,230.291 L205.315,230.001 L205.052,229.711 L204.789,229.43 L204.526,229.149 L204.254,228.877 L204.209,228.822 L204.146,228.759 L203.738,228.342 L203.33,227.934 L202.922,227.535 L202.505,227.145 L202.088,226.764 L201.671,226.393 L201.245,226.039 L200.809,225.695 L200.374,225.359 L199.939,225.033 L199.495,224.716 L199.051,224.416 L198.606,224.117 L198.153,223.836 L197.7,223.564 L197.237,223.301 L196.775,223.057 L196.313,222.812 L195.841,222.585 L195.361,222.368 L194.889,222.159 L194.4,221.96 L193.919,221.778 L193.43,221.597 L192.94,221.434 L192.442,221.28 L191.943,221.135 L191.435,220.999 L190.928,220.881 L190.411,220.772 L189.903,220.663 L189.377,220.573 L188.861,220.5 L188.335,220.428 L187.8,220.364 L187.265,220.319 L186.73,220.282 L186.186,220.255 L185.642,220.237 L185.098,220.237 L184.853,220.237 L184.609,220.237 L184.364,220.246 L184.119,220.255 L184.065,220.255 L183.72,220.246 L183.312,220.237 L182.895,220.237 L182.288,220.237 L181.68,220.255 L181.082,220.283 L180.493,220.319 L179.903,220.373 L179.314,220.428 L178.734,220.5 L178.154,220.582 L177.583,220.672 L177.011,220.781 L176.449,220.89 L175.887,221.017 L175.334,221.153 L174.781,221.298 L174.237,221.452 L173.702,221.624 L173.159,221.806 L172.633,221.996 L172.098,222.195 L171.581,222.404 L171.055,222.631 L170.548,222.866 L170.031,223.111 L169.532,223.365 L169.024,223.628 L168.526,223.909 L168.036,224.19 L167.556,224.489 L167.619,220.881 L153.413,220.881 L153.414,300.407 L167.556,300.407 L167.556,275.566 M181.871,266.491 L181.291,266.446 L180.72,266.374 L180.158,266.292 L179.605,266.183 L179.061,266.065 L178.526,265.92 L178,265.757 L177.483,265.576 L176.976,265.376 L176.486,265.15 L175.996,264.914 L175.516,264.66 L175.045,264.379 L174.582,264.08 L174.129,263.772 L173.694,263.436 L173.259,263.083 L172.832,262.711 L172.415,262.312 L172.017,261.904 L171.618,261.478 L171.246,261.043 L170.892,260.599 L170.557,260.145 L170.24,259.674 L169.94,259.193 L169.659,258.704 L169.396,258.205 L169.143,257.698 L168.916,257.172 L168.707,256.646 L168.517,256.102 L168.345,255.549 L168.191,254.987 L168.055,254.407 L167.937,253.826 L167.837,253.228 L167.755,252.621 L167.692,252.004 L167.647,251.379 L167.619,250.735 L167.61,250.091 L167.619,249.42 L167.647,248.768 L167.692,248.124 L167.755,247.489 L167.837,246.864 L167.937,246.256 L168.046,245.658 L168.182,245.069 L168.336,244.498 L168.508,243.936 L168.698,243.383 L168.907,242.839 L169.124,242.313 L169.369,241.796 L169.632,241.288 L169.913,240.799 L170.203,240.318 L170.52,239.847 L170.856,239.384 L171.209,238.94 L171.572,238.505 L171.962,238.079 L172.361,237.671 L172.769,237.281 L173.195,236.918 L173.621,236.565 L174.065,236.229 L174.509,235.921 L174.972,235.622 L175.434,235.35 L175.915,235.096 L176.404,234.861 L176.903,234.643 L177.41,234.443 L177.927,234.262 L178.453,234.099 L178.988,233.954 L179.532,233.836 L180.085,233.727 L180.647,233.646 L181.218,233.573 L181.807,233.528 L182.397,233.501 L183.004,233.492 L183.602,233.501 L184.201,233.528 L184.781,233.582 L185.361,233.646 L185.923,233.736 L186.476,233.836 L187.029,233.963 L187.564,234.108 L187.927,234.217 L188.045,234.262 L188.552,234.471 L189.042,234.697 L189.532,234.942 L190.012,235.205 L190.483,235.486 L190.937,235.794 L191.39,236.111 L191.834,236.456 L192.269,236.819 L192.696,237.208 L193.113,237.607 L193.521,238.024 L193.919,238.469 L194.3,238.913 L194.663,239.375 L194.998,239.847 L195.325,240.327 L195.624,240.817 L195.914,241.315 L196.186,241.832 L196.431,242.358 L196.657,242.893 L196.875,243.437 L197.065,243.99 L197.247,244.561 L197.401,245.132 L197.537,245.721 L197.655,246.32 L197.763,246.936 L197.845,247.553 L197.908,248.187 L197.954,248.822 L197.981,249.484 L197.99,250.145 L197.981,250.798 L197.954,251.451 L197.909,252.086 L197.845,252.711 L197.763,253.328 L197.664,253.935 L197.546,254.524 L197.41,255.104 L197.256,255.676 L197.084,256.238 L196.893,256.791 L196.685,257.326 L196.458,257.851 L196.213,258.368 L195.95,258.876 L195.669,259.375 L195.37,259.855 L195.053,260.336 L194.717,260.798 L194.364,261.242 L193.992,261.686 L193.602,262.112 L193.203,262.529 L192.786,262.928 L192.369,263.3 L191.934,263.663 L191.499,263.998 L191.046,264.315 L190.583,264.615 L190.112,264.896 L189.641,265.159 L189.151,265.403 L188.834,265.539 L188.725,265.585 L188.199,265.766 L187.673,265.92 L187.129,266.065 L186.576,266.192 L186.014,266.292 L185.443,266.383 L184.863,266.446 L184.265,266.491 L183.666,266.519 L183.059,266.528 L182.46,266.519 L181.871,266.491 M232.341,275.784 L232.396,275.82 L232.858,276.101 L233.32,276.382 L233.792,276.645 L234.263,276.899 L234.735,277.144 L235.215,277.38 L235.696,277.606 L236.176,277.824 L236.666,278.032 L237.155,278.232 L237.645,278.422 L238.143,278.603 L238.642,278.767 L239.15,278.93 L239.657,279.075 L240.165,279.22 L240.673,279.347 L241.189,279.465 L241.706,279.583 L242.232,279.682 L242.758,279.773 L243.284,279.854 L243.819,279.927 L244.353,279.99 L244.888,280.045 L245.432,280.081 L245.976,280.117 L246.52,280.145 L247.073,280.154 L247.626,280.163 L248.034,280.163 L248.433,280.154 L248.832,280.135 L249.022,280.135 L249.031,280.135 L249.285,280.145 L249.539,280.154 L249.793,280.154 L250.047,280.163 L250.301,280.163 L250.854,280.154 L251.407,280.145 L251.951,280.117 L252.495,280.081 L253.029,280.027 L253.564,279.972 L254.09,279.909 L254.616,279.827 L255.133,279.737 L255.649,279.637 L256.166,279.528 L256.674,279.41 L257.173,279.274 L257.671,279.129 L258.17,278.984 L258.659,278.821 L259.149,278.649 L259.629,278.458 L260.11,278.268 L260.581,278.059 L261.053,277.842 L261.524,277.624 L261.987,277.379 L262.44,277.135 L262.893,276.881 L263.346,276.609 L263.791,276.337 L264.226,276.047 L264.661,275.747 L265.096,275.43 L265.522,275.113 L265.948,274.786 L266.374,274.442 L266.782,274.088 L267.199,273.726 L267.607,273.354 L268.006,272.973 L268.405,272.574 L268.804,272.176 L269.194,271.758 L269.575,271.332 L269.955,270.906 L270.318,270.471 L270.672,270.027 L271.016,269.583 L271.351,269.129 L271.678,268.667 L271.995,268.205 L272.303,267.733 L272.594,267.262 L272.884,266.772 L273.165,266.292 L273.255,266.119 L273.382,265.92 L273.582,265.576 L273.781,265.231 L273.981,264.886 L274.171,264.542 L274.352,264.197 L274.534,263.844 L274.715,263.49 L274.878,263.146 L275.05,262.792 L275.213,262.43 L275.368,262.076 L275.513,261.722 L275.667,261.36 L275.803,260.997 L275.939,260.644 L276.075,260.272 L276.202,259.909 L276.319,259.547 L276.437,259.175 L276.546,258.812 L276.655,258.441 L276.755,258.069 L276.854,257.697 L276.945,257.326 L277.027,256.945 L277.108,256.573 L277.19,256.192 L277.262,255.811 L277.326,255.431 L277.389,255.05 L277.444,254.669 L277.498,254.279 L277.543,253.899 L277.589,253.509 L277.625,253.119 L277.661,252.729 L277.688,252.339 L277.707,251.949 L277.725,251.551 L277.734,251.152 L277.743,250.762 L277.743,250.363 L277.743,249.955 L277.734,249.556 L277.725,249.157 L277.706,248.767 L277.688,248.368 L277.661,247.969 L277.625,247.58 L277.589,247.19 L277.543,246.8 L277.498,246.41 L277.444,246.02 L277.389,245.63 L277.326,245.25 L277.262,244.86 L277.19,244.479 L277.108,244.098 L277.026,243.718 L276.936,243.337 L276.845,242.956 L276.745,242.584 L276.646,242.204 L276.537,241.832 L276.428,241.46 L276.31,241.088 L276.183,240.717 L276.056,240.354 L275.93,239.982 L275.794,239.62 L275.648,239.257 L275.503,238.895 L275.349,238.532 L275.195,238.169 L275.032,237.807 L274.86,237.453 L274.687,237.09 L274.515,236.737 L274.334,236.383 L274.144,236.03 L273.953,235.676 L273.754,235.332 L273.554,234.978 L273.346,234.634 L273.137,234.298 L272.929,233.954 L272.711,233.627 L272.493,233.301 L272.267,232.975 L272.04,232.648 L271.814,232.331 L271.578,232.023 L271.342,231.705 L271.097,231.406 L270.853,231.098 L270.608,230.799 L270.354,230.509 L270.1,230.219 L269.837,229.928 L269.574,229.647 L269.311,229.366 L269.039,229.094 L268.994,229.04 L268.931,228.976 L268.523,228.559 L268.115,228.151 L267.707,227.753 L267.29,227.363 L266.873,226.982 L266.456,226.61 L266.029,226.257 L265.594,225.912 L265.159,225.577 L264.724,225.25 L264.28,224.933 L263.836,224.634 L263.391,224.335 L262.938,224.054 L262.485,223.782 L262.022,223.519 L261.56,223.274 L261.098,223.029 L260.626,222.803 L260.146,222.585 L259.674,222.377 L259.185,222.177 L258.704,221.996 L258.215,221.814 L257.725,221.651 L257.227,221.497 L256.728,221.352 L256.22,221.216 L255.713,221.098 L255.196,220.99 L254.688,220.881 L254.162,220.79 L253.646,220.718 L253.12,220.645 L252.585,220.582 L252.05,220.536 L251.515,220.5 L250.971,220.473 L250.427,220.455 L249.883,220.455 L249.638,220.455 L249.394,220.455 L249.149,220.464 L248.904,220.473 L248.85,220.473 L248.505,220.464 L248.097,220.455 L247.68,220.455 L247.073,220.455 L246.465,220.473 L245.867,220.5 L245.278,220.536 L244.688,220.591 L244.099,220.645 L243.519,220.718 L242.939,220.799 L242.368,220.89 L241.796,220.999 L241.234,221.107 L240.672,221.234 L240.119,221.37 L239.566,221.515 L239.022,221.67 L238.487,221.842 L237.943,222.023 L237.418,222.214 L236.883,222.413 L236.366,222.622 L235.84,222.848 L235.333,223.084 L234.816,223.329 L234.317,223.583 L233.809,223.845 L233.311,224.127 L232.821,224.408 L232.341,224.707 L232.404,221.099 L218.198,221.099 L218.199,300.625 L232.341,300.625 L232.341,275.784 M246.656,266.709 L246.076,266.664 L245.505,266.591 L244.943,266.509 L244.39,266.401 L243.846,266.283 L243.311,266.138 L242.785,265.975 L242.268,265.793 L241.76,265.594 L241.271,265.367 L240.781,265.131 L240.301,264.878 L239.829,264.597 L239.367,264.297 L238.914,263.989 L238.479,263.654 L238.043,263.3 L237.617,262.928 L237.2,262.53 L236.801,262.122 L236.403,261.696 L236.031,261.26 L235.677,260.816 L235.342,260.363 L235.025,259.891 L234.725,259.411 L234.444,258.921 L234.181,258.423 L233.928,257.915 L233.701,257.389 L233.492,256.863 L233.302,256.319 L233.13,255.766 L232.976,255.204 L232.84,254.624 L232.722,254.044 L232.622,253.446 L232.54,252.838 L232.477,252.222 L232.432,251.596 L232.404,250.952 L232.395,250.309 L232.404,249.638 L232.432,248.985 L232.477,248.342 L232.54,247.707 L232.622,247.081 L232.722,246.474 L232.83,245.876 L232.966,245.286 L233.121,244.715 L233.293,244.153 L233.483,243.6 L233.692,243.056 L233.909,242.53 L234.154,242.014 L234.417,241.506 L234.698,241.016 L234.988,240.536 L235.305,240.064 L235.641,239.602 L235.994,239.158 L236.357,238.723 L236.747,238.296 L237.146,237.889 L237.554,237.499 L237.98,237.136 L238.406,236.782 L238.85,236.447 L239.294,236.139 L239.757,235.84 L240.219,235.568 L240.7,235.314 L241.189,235.078 L241.688,234.86 L242.195,234.661 L242.712,234.48 L243.238,234.316 L243.773,234.171 L244.317,234.054 L244.87,233.945 L245.432,233.863 L246.003,233.791 L246.592,233.745 L247.182,233.718 L247.789,233.709 L248.387,233.718 L248.986,233.745 L249.566,233.8 L250.146,233.863 L250.708,233.954 L251.261,234.054 L251.814,234.18 L252.349,234.326 L252.712,234.434 L252.83,234.48 L253.337,234.688 L253.827,234.915 L254.316,235.16 L254.797,235.422 L255.268,235.703 L255.722,236.012 L256.175,236.329 L256.619,236.674 L257.054,237.036 L257.48,237.426 L257.898,237.825 L258.305,238.242 L258.704,238.686 L259.085,239.13 L259.448,239.593 L259.783,240.064 L260.11,240.545 L260.409,241.034 L260.699,241.533 L260.971,242.05 L261.216,242.575 L261.442,243.11 L261.66,243.654 L261.85,244.207 L262.032,244.778 L262.186,245.35 L262.322,245.939 L262.44,246.537 L262.548,247.154 L262.63,247.77 L262.693,248.405 L262.739,249.039 L262.766,249.701 L262.775,250.363 L262.766,251.016 L262.739,251.668 L262.693,252.303 L262.63,252.929 L262.548,253.545 L262.449,254.153 L262.331,254.742 L262.195,255.322 L262.041,255.893 L261.868,256.455 L261.678,257.008 L261.47,257.543 L261.243,258.069 L260.998,258.586 L260.735,259.093 L260.454,259.592 L260.155,260.073 L259.838,260.553 L259.502,261.015 L259.149,261.46 L258.777,261.904 L258.387,262.33 L257.988,262.747 L257.571,263.146 L257.154,263.518 L256.719,263.88 L256.284,264.216 L255.831,264.533 L255.368,264.832 L254.897,265.113 L254.426,265.376 L253.936,265.621 L253.619,265.757 L253.51,265.802 L252.984,265.984 L252.458,266.138 L251.914,266.283 L251.361,266.41 L250.799,266.509 L250.228,266.6 L249.648,266.664 L249.049,266.709 L248.451,266.736 L247.844,266.745 L247.245,266.736 L246.656,266.709 Z" style="stroke:#000000;stroke-opacity:0.870588;stroke-width:0;stroke-linejoin:bevel;stroke-miterlimit:2;stroke-linecap:square;fill-rule:evenodd;fill:#000000;fill-opacity:1;"/>
        </g>
        <g id="Shape5">
            <desc shapeID="5" type="0" basicInfo-basicType="0" basicInfo-roundedRectRadius="12" basicInfo-polygonSides="6" basicInfo-starPoints="5" bounding="rect(-74.6832,-81.905,149.366,163.81)" text="" font-familyName="Helvetica" font-pixelSize="20" font-bold="0" font-underline="0" font-alignment="1" strokeStyle="0" markerStart="0" markerEnd="0" shadowEnabled="0" shadowOffsetX="0" shadowOffsetY="2" shadowBlur="4" shadowOpacity="160" blurEnabled="0" blurRadius="4" transform="matrix(1,0,0,1,183.016,111.317)" pers-center="0,0" pers-size="0,0" pers-start="0,0" pers-end="0,0" locked="0" mesh="" flag=""/>
            <path id="shapePath5" d="M108.333,29.4121 C108.333,29.4121 108.333,193.222 108.333,193.222 C108.333,193.222 188.565,115.632 188.565,115.632 C188.565,115.632 242.199,175.432 242.199,175.432 C242.199,175.432 257.699,162.221 257.699,162.221 C257.699,162.221 189.709,86.3052 189.709,86.3052 C189.709,86.3052 128.941,144.079 128.941,144.079 C128.941,144.079 128.941,29.4121 128.941,29.4121 C128.941,29.4121 108.333,29.4121 108.333,29.4121 Z" style="stroke:none;fill-rule:evenodd;fill:#000000;fill-opacity:1;"/>
        </g>
    </g>
</svg>
